<svg width="24" height="24" viewBox="0 0 24 24" fill="none" xmlns="http://www.w3.org/2000/svg">
<path fill-rule="evenodd" clip-rule="evenodd" d="M3.06068 10.9393C2.47489 11.5251 2.47489 12.4749 3.06068 13.0607L10.9393 20.9393C11.5251 21.5251 12.4749 21.5251 13.0607 20.9393L20.9393 13.0607C21.5251 12.4749 21.5251 11.5251 20.9393 10.9393L13.0607 3.06068C12.4749 2.47489 11.5251 2.47489 10.9393 3.06068L3.06068 10.9393ZM11.2396 9.2501C11.4459 9.44894 11.6991 9.54835 11.9993 9.54835C12.2994 9.54835 12.5526 9.44894 12.759 9.2501C12.9653 9.05127 13.0685 8.8093 13.0685 8.52418C13.0685 8.23906 12.9653 7.99708 12.759 7.79825C12.5526 7.59942 12.2994 7.5 11.9993 7.5C11.6991 7.5 11.4459 7.59942 11.2396 7.79825C11.0332 7.99708 10.9301 8.23906 10.9301 8.52418C10.9301 8.8093 11.0332 9.05127 11.2396 9.2501ZM11.0426 10.849V16.5213H12.9559V10.849H11.0426Z" fill="#292929"/>
</svg>
